<?xml version="1.0" encoding="UTF-8" standalone="no"?>
<!-- Created with Inkscape (http://www.inkscape.org/) -->

<svg
   width="600"
   height="600"
   viewBox="0 0 158.75 158.75"
   version="1.1"
   id="svg1"
   inkscape:version="1.3 (0e150ed, 2023-07-21)"
   sodipodi:docname="smart-city-booking-logo.svg"
   xml:space="preserve"
   inkscape:export-filename="icons/icon-512x512.png"
   inkscape:export-xdpi="20.48"
   inkscape:export-ydpi="20.48"
   xmlns:inkscape="http://www.inkscape.org/namespaces/inkscape"
   xmlns:sodipodi="http://sodipodi.sourceforge.net/DTD/sodipodi-0.dtd"
   xmlns="http://www.w3.org/2000/svg"
   xmlns:svg="http://www.w3.org/2000/svg"><sodipodi:namedview
     id="namedview1"
     pagecolor="#ffffff"
     bordercolor="#666666"
     borderopacity="1.0"
     inkscape:showpageshadow="2"
     inkscape:pageopacity="0.0"
     inkscape:pagecheckerboard="0"
     inkscape:deskcolor="#d1d1d1"
     inkscape:document-units="mm"
     inkscape:zoom="0.42080987"
     inkscape:cx="451.51032"
     inkscape:cy="163.96954"
     inkscape:window-width="1728"
     inkscape:window-height="979"
     inkscape:window-x="0"
     inkscape:window-y="38"
     inkscape:window-maximized="0"
     inkscape:current-layer="g12"
     showguides="false" /><defs
     id="defs1" /><g
     inkscape:label="Ebene 1"
     inkscape:groupmode="layer"
     id="layer1"><g
       id="g12"
       transform="translate(-3.2008395,0.87694908)"><path
         id="circle9"
         style="opacity:1;fill:#935af9;fill-opacity:1;stroke-width:6.44152;stroke-linecap:square;stroke-dasharray:none"
         d="M 58.741634,12.937195 A 69.934631,69.934631 0 0 0 12.641089,78.498051 69.934631,69.934631 0 0 0 58.741634,144.05891 Z" /><path
         id="circle10"
         style="opacity:1;fill:#5cccdc;fill-opacity:1;stroke-width:6.44152;stroke-linecap:square;stroke-dasharray:none"
         d="M 82.575838,8.5633016 A 69.934631,69.934631 0 0 0 38.558887,24.312211 L 151.55871,89.55319 A 69.934631,69.934631 0 0 0 152.51059,78.498051 69.934631,69.934631 0 0 0 82.575838,8.5633016 Z" /><path
         id="rect8"
         style="opacity:1;fill:#4130be;fill-opacity:1;stroke-width:8.22494;stroke-linecap:square;stroke-dasharray:none"
         d="m 98.128891,132.72428 -131.70431,1.8e-4 a 69.934631,69.934631 0 0 0 30.8717925,37.11003 69.934631,69.934631 0 0 0 95.5326445,-25.59789 69.934631,69.934631 0 0 0 5.299873,-11.51232 z"
         transform="rotate(-30)" /><path
         id="path7"
         style="opacity:0.2;fill:#ffffff;fill-opacity:1;stroke-width:5.803;stroke-linecap:square;stroke-dasharray:none"
         inkscape:transform-center-x="-6.7556548e-06"
         inkscape:transform-center-y="26.703244"
         d="M 58.933552,-16.038037 A 39.338378,39.338378 0 0 0 72.687125,-38.886728 L 59.862278,-61.09999 46.81041,-83.706544 a 39.338378,39.338378 0 0 0 -12.615557,-2.165283 39.338378,39.338378 0 0 0 -13.50504,2.49695 L 7.829503,-61.09999 -4.5317075,-39.689589 A 39.338378,39.338378 0 0 0 9.3494741,-16.038037 H 33.846036 Z M 47.537694,-22.655099 27.255716,-34.364894 6.9740288,-46.074688 27.255716,-57.784482 47.537694,-69.494277 v 23.419589 z"
         transform="matrix(-1.7777711,0,0,-1.7777711,143.36646,-4.2276521)" /><path
         id="path6"
         style="opacity:0.2;fill:#ffffff;fill-opacity:1;stroke-width:5.803;stroke-linecap:square;stroke-dasharray:none"
         inkscape:transform-center-x="-12.405719"
         inkscape:transform-center-y="5.5605867"
         d="m -18.18718,-16.038254 52.033289,2.93e-4 52.032921,-2.16e-4 L 59.862395,-61.100031 33.84576,-106.16188 7.8294742,-61.099814 Z m 13.3303283,-15.816141 22.6441867,-27.793276 22.644115,-27.792837 12.747634,33.50665 12.747563,33.507089 -35.39175,-5.713813 z"
         transform="matrix(0.1850983,1.1465116,-1.1465116,0.1850983,23.232884,47.51256)" /></g></g></svg>
